<?xml version="1.0" encoding="UTF-8" standalone="no"?>
<svg
 viewBox="0 0 360 360"
 xmlns="http://www.w3.org/2000/svg" xmlns:xlink="http://www.w3.org/1999/xlink"  version="1.2" baseProfile="tiny">
<title>Qt Svg Document</title>
<desc>Generated with Qt</desc>
<defs>
</defs>
<g fill="none" stroke="black" stroke-width="1" fill-rule="evenodd" stroke-linecap="square" stroke-linejoin="bevel" >

<g fill="none" fill-opacity="1" stroke="none" transform="matrix(1,0,0,1,0,0)"
font-family="Helvetica" font-size="12" font-weight="400" font-style="normal" 
>
<path vector-effect="non-scaling-stroke" fill-rule="evenodd" d="M0,0 L1024,0 L1024,364 L0,364 L0,0"/>
<path vector-effect="non-scaling-stroke" fill-rule="evenodd" d="M0,0 L1024,0 L1024,364 L0,364 L0,0"/>
<path vector-effect="non-scaling-stroke" fill-rule="evenodd" d="M0,0 L1024,0 L1024,364 L0,364 L0,0"/>
</g>

<g fill="none" fill-opacity="1" stroke="none" transform="matrix(1,0,0,1,0,0)"
font-family="Helvetica" font-size="12" font-weight="400" font-style="normal" 
>
<path vector-effect="non-scaling-stroke" fill-rule="evenodd" d="M31,1 L329,1 C345.56,1 359,14.44 359,31 L359,329 C359,345.56 345.56,359 329,359 L31,359 C14.44,359 1,345.56 1,329 L1,31 C1,14.44 14.44,1 31,1 "/>
</g>

<g fill="#f2f3f4" fill-opacity="1" stroke="none" transform="matrix(1,0,0,1,0,0)"
font-family="Helvetica" font-size="12" font-weight="400" font-style="normal" 
>
<path vector-effect="non-scaling-stroke" fill-rule="evenodd" d="M30,0 L330,0 C346.56,0 360,13.44 360,30 L360,330 C360,346.56 346.56,360 330,360 L30,360 C13.44,360 0,346.56 0,330 L0,30 C0,13.44 13.44,0 30,0 M30,10 L330,10 C341.04,10 350,18.96 350,30 L350,330 C350,341.04 341.04,350 330,350 L30,350 C18.96,350 10,341.04 10,330 L10,30 C10,18.96 18.96,10 30,10 "/>
<path vector-effect="non-scaling-stroke" fill-rule="evenodd" d="M140,190 L190,190 L190,320 L140,320 L140,190"/>
<path vector-effect="non-scaling-stroke" fill-rule="evenodd" d="M200,120 L250,120 L250,320 L200,320 L200,120"/>
<path vector-effect="non-scaling-stroke" fill-rule="evenodd" d="M230,70 L240,70 L240,120 L230,120 L230,70"/>
<path vector-effect="non-scaling-stroke" fill-rule="evenodd" d="M260,140 L300,140 L300,320 L260,320 L260,140"/>
<path vector-effect="non-scaling-stroke" fill-rule="evenodd" d="M300,140 L300,230 L310,230 L320,140 L300,140"/>
<path vector-effect="non-scaling-stroke" fill-rule="evenodd" d="M300,140 L300,320 L310,230 L310,140 L300,140"/>
<path vector-effect="non-scaling-stroke" fill-rule="evenodd" d="M40,180 L130,180 L130,320 L40,320 L40,180"/>
<path vector-effect="non-scaling-stroke" fill-rule="evenodd" d="M60,130 L110,130 L110,180 L60,180 L60,130"/>
<path vector-effect="non-scaling-stroke" fill-rule="evenodd" d="M70,90 L100,90 L100,130 L70,130 L70,90"/>
<path vector-effect="non-scaling-stroke" fill-rule="evenodd" d="M80,50 L90,50 L90,90 L80,90 L80,50"/>
</g>
</g>
</svg>
