<?xml version="1.0" encoding="UTF-8" standalone="no"?>
<svg width="361.244mm" height="128.411mm"
 viewBox="0 0 360 360"
 xmlns="http://www.w3.org/2000/svg" xmlns:xlink="http://www.w3.org/1999/xlink"  version="1.2" baseProfile="tiny">
<title>Qt Svg Document</title>
<desc>Generated with Qt</desc>
<defs>
</defs>
<g fill="none" stroke="black" stroke-width="1" fill-rule="evenodd" stroke-linecap="square" stroke-linejoin="bevel" >

<g fill-opacity="1" stroke="none" transform="matrix(1,0,0,1,0,0)"
font-family="Helvetica" font-size="12" font-weight="400" font-style="normal" 
>
<path vector-effect="non-scaling-stroke" fill-rule="evenodd" d="M0,0 L1024,0 L1024,364 L0,364 L0,0"/>
<path vector-effect="non-scaling-stroke" fill-rule="evenodd" d="M0,0 L1024,0 L1024,364 L0,364 L0,0"/>
</g>

<g stroke="none" transform="matrix(1,0,0,1,0,0)"
font-family="Helvetica" font-size="12" font-weight="400" font-style="normal" 
>
<path vector-effect="non-scaling-stroke" fill-rule="evenodd" d="M0,0 L1024,0 L1024,364 L0,364 L0,0"/>
</g>

<g fill="#ffffff" fill-opacity="1" stroke="none" transform="matrix(1,0,0,1,0,0)"
font-family="Helvetica" font-size="12" font-weight="400" font-style="normal" 
>
<path vector-effect="non-scaling-stroke" fill-rule="evenodd" d="M30,0 L330,0 C346.56,0 360,13.44 360,30 L360,330 C360,346.56 346.56,360 330,360 L30,360 C13.44,360 0,346.56 0,330 L0,30 C0,13.44 13.44,0 30,0 "/>
</g>

<g fill="#091d2a" fill-opacity="1" stroke="none" transform="matrix(1,0,0,1,0,0)"
font-family="Helvetica" font-size="12" font-weight="400" font-style="normal" 
>
<path vector-effect="non-scaling-stroke" fill-rule="evenodd" d="M160,120 L230,120 L230,360 L160,360 L160,120"/>
<path vector-effect="non-scaling-stroke" fill-rule="evenodd" d="M200,70 L210,70 L210,120 L200,120 L200,70"/>
<path vector-effect="non-scaling-stroke" fill-rule="evenodd" d="M250,180 L300,180 L300,360 L250,360 L250,180"/>
<path vector-effect="non-scaling-stroke" fill-rule="evenodd" d="M290,260 L320,260 L320,360 L290,360 L290,260"/>
<path vector-effect="non-scaling-stroke" fill-rule="evenodd" d="M40,180 L140,180 L140,360 L40,360 L40,180"/>
<path vector-effect="non-scaling-stroke" fill-rule="evenodd" d="M60,130 L120,130 L120,180 L60,180 L60,130"/>
<path vector-effect="non-scaling-stroke" fill-rule="evenodd" d="M75,90 L105,90 L105,130 L75,130 L75,90"/>
<path vector-effect="non-scaling-stroke" fill-rule="evenodd" d="M85,50 L95,50 L95,90 L85,90 L85,50"/>
</g>
</g>
</svg>
