<?xml version="1.0" encoding="UTF-8" standalone="no"?>
<svg width="38px" height="38px"
 viewBox="0 0 400 400"
 xmlns="http://www.w3.org/2000/svg" xmlns:xlink="http://www.w3.org/1999/xlink"  version="1.2" baseProfile="tiny">
<title>Qt Svg Document</title>
<desc>Generated with Qt</desc>
<defs>
</defs>
<g fill="none" stroke="black" stroke-width="1" fill-rule="evenodd" stroke-linecap="square" stroke-linejoin="bevel" >

<g fill="#17202A" fill-opacity="1" stroke="none" transform="matrix(1,0,0,1,0,0)"
font-family="Helvetica" font-size="12" font-weight="400" font-style="normal" 
>
<path vector-effect="non-scaling-stroke" fill-rule="evenodd" d="M38,8 L338,8 C354.56,8 368,21.44 368,38 L368,338 C368,354.56 354.56,368 338,368 L38,368 C21.44,368 8,354.56 8,338 L8,38 C8,21.44 21.44,8 38,8 "/>
</g>

<g fill="#F7F9F9" fill-opacity="1" stroke="none" transform="matrix(1,0,0,1,0,0)"
font-family="Helvetica" font-size="12" font-weight="400" font-style="normal" 
>
<path vector-effect="non-scaling-stroke" fill-rule="evenodd" d="M68,178 L118,178 L118,368 L68,368 L68,178"/>
<path vector-effect="non-scaling-stroke" fill-rule="evenodd" d="M38,248 L68,248 L68,368 L38,368 L38,248"/>
<path vector-effect="non-scaling-stroke" fill-rule="evenodd" d="M268,128 L338,128 L338,368 L268,368 L268,128"/>
<path vector-effect="non-scaling-stroke" fill-rule="evenodd" d="M308,78 L318,78 L318,128 L308,128 L308,78"/>
<path vector-effect="non-scaling-stroke" fill-rule="evenodd" d="M148,158 L238,158 L238,368 L148,368 L148,158"/>
<path vector-effect="non-scaling-stroke" fill-rule="evenodd" d="M168,108 L218,108 L218,158 L168,158 L168,108"/>
<path vector-effect="non-scaling-stroke" fill-rule="evenodd" d="M178,68 L208,68 L208,108 L178,108 L178,68"/>
<path vector-effect="non-scaling-stroke" fill-rule="evenodd" d="M188,28 L198,28 L198,68 L188,68 L188,28"/>
</g>
</g>
</svg>
